<svg width="512" height="512" viewBox="0 0 512 512" fill="none" xmlns="http://www.w3.org/2000/svg"><svg width="180" height="180" viewBox="0 0 180 180" fill="none" xmlns="http://www.w3.org/2000/svg">

  <!-- Background -->  <style>

  <rect width="512" height="512" fill="#0EA5E9" rx="80"/>    @media (prefers-color-scheme: light) {

        .background { fill: black; }

  <!-- Bold X in red -->      .foreground { fill: white; }

  <path d="M140 140L372 372M372 140L140 372" stroke="#EF4444" stroke-width="48" stroke-linecap="round" stroke-linejoin="round"/>    }

</svg>    @media (prefers-color-scheme: dark) {

      .background { fill: white; }
      .foreground { fill: black; }
    }
  </style>
  <g clip-path="url(#clip0_7960_43945)">
    <rect class="background" width="180" height="180" rx="37" />
    <g style="transform: scale(95%); transform-origin: center">
      <path class="foreground"
        d="M101.141 53H136.632C151.023 53 162.689 64.6662 162.689 79.0573V112.904H148.112V79.0573C148.112 78.7105 148.098 78.3662 148.072 78.0251L112.581 112.898C112.701 112.902 112.821 112.904 112.941 112.904H148.112V126.672H112.941C98.5504 126.672 86.5638 114.891 86.5638 100.5V66.7434H101.141V100.5C101.141 101.15 101.191 101.792 101.289 102.422L137.56 66.7816C137.255 66.7563 136.945 66.7434 136.632 66.7434H101.141V53Z" />
      <path class="foreground"
        d="M65.2926 124.136L14 66.7372H34.6355L64.7495 100.436V66.7372H80.1365V118.47C80.1365 126.278 70.4953 129.958 65.2926 124.136Z" />
    </g>
  </g>
  <defs>
    <clipPath id="clip0_7960_43945">
      <rect width="180" height="180" fill="white" />
    </clipPath>
  </defs>
</svg>